<svg width="25" height="28" viewBox="0 0 25 28" fill="none" xmlns="http://www.w3.org/2000/svg">
    <path d="M21.7344 13.3256C22.1799 12.8089 22.595 12.2668 22.9776 11.7019H23C23.2984 11.7046 23.5914 11.6224 23.845 11.4649C24.0986 11.3073 24.3023 11.081 24.4325 10.812C24.5627 10.5431 24.6141 10.2427 24.5805 9.94573C24.547 9.64874 24.43 9.36742 24.2432 9.1344C24.5813 7.97144 24.5067 6.96287 23.9945 6.17843C22.9875 4.65188 20.4266 4.34057 17.0724 5.28689C16.8777 4.66493 16.6435 4.05608 16.3713 3.464C16.5729 3.19451 16.6819 2.86688 16.6821 2.53015C16.6851 2.2886 16.6324 2.04961 16.5279 1.83188C16.4235 1.61415 16.2701 1.42357 16.0799 1.27503C15.8898 1.12649 15.6678 1.02404 15.4315 0.975658C15.1952 0.927272 14.951 0.934267 14.7178 0.996117C14.0366 0.34117 13.2931 0 12.5149 0C10.5407 0 8.82511 2.15658 7.76343 5.93435C6.71593 5.69888 5.64686 5.57286 4.5734 5.55832C2.41274 5.55832 0.940812 6.18838 0.314245 7.38372C-0.590798 9.10949 0.480829 11.5998 3.24817 14.2619C0.76179 17.188 -0.0587155 19.7729 1.01043 21.4016C1.38203 21.9367 1.91814 22.3355 2.53705 22.5371C2.62958 22.837 2.80936 23.1023 3.05334 23.2992C3.29733 23.496 3.59442 23.6155 3.9066 23.6422C4.21877 23.669 4.53182 23.6018 4.80565 23.4493C5.07947 23.2968 5.30161 23.0659 5.44363 22.7862C6.285 22.6909 7.11678 22.5243 7.93001 22.2881C9.00413 25.6674 10.6526 27.5974 12.4975 27.5974C14.4692 27.5974 16.1848 25.4408 17.2465 21.6655C18.2942 21.8997 19.3631 22.0257 20.4365 22.0416C22.5947 22.0416 24.0666 21.4091 24.6957 20.2137C25.5833 18.483 24.5092 15.9902 21.7344 13.3256ZM1.24664 7.87679C1.66684 7.07741 2.83543 6.63165 4.5386 6.63165C5.52052 6.64353 6.49863 6.75618 7.45761 6.96783C7.17325 8.21615 6.9747 9.48252 6.86336 10.758C6.63461 10.9423 6.41084 11.1266 6.19204 11.3134L6.07767 11.408C5.79174 11.6571 5.51823 11.9061 5.2497 12.1551C5.16517 12.2348 5.0856 12.3145 5.00106 12.4042C4.81459 12.581 4.63557 12.7553 4.45904 12.9321L4.2104 13.1961C4.12586 13.2832 4.03635 13.3679 3.96176 13.4451C1.63451 11.2113 0.605151 9.10451 1.24664 7.87679ZM6.78379 15.5967C6.78379 15.6565 6.78379 15.7137 6.78379 15.7735L6.7639 15.7586C6.4357 15.5295 6.11994 15.2929 5.81163 15.0538C5.70969 14.9766 5.6152 14.8944 5.51575 14.8048C5.3044 14.6379 5.09802 14.4686 4.89911 14.3067C4.84939 14.2669 4.80465 14.2245 4.7574 14.1847C4.80713 14.1324 4.85188 14.0801 4.9016 14.0303C5.09803 13.8261 5.29942 13.6244 5.50579 13.4227L5.80665 13.1313C6.08264 12.8823 6.36857 12.6133 6.66445 12.3593L6.75894 12.2747V12.3294C6.73739 12.8175 6.72578 13.3056 6.72412 13.7937C6.7291 14.3914 6.75147 14.9916 6.78379 15.5967ZM5.54061 21.6755C5.46061 21.3603 5.28539 21.0775 5.03888 20.8659C4.79238 20.6542 4.48663 20.5239 4.16341 20.4928C3.8402 20.4618 3.51528 20.5314 3.23309 20.6923C2.95089 20.8532 2.72517 21.0974 2.58678 21.3916C2.30848 21.2606 2.06932 21.0588 1.89309 20.8064C1.13226 19.6509 1.94779 17.4545 4.02392 15.0015C4.101 15.0688 4.18553 15.136 4.27256 15.2057L4.5212 15.4149C4.7085 15.5693 4.89995 15.7212 5.09555 15.8706L5.31435 16.045C5.58537 16.2517 5.86384 16.4583 6.15226 16.6601L6.24923 16.7273C6.46306 16.8767 6.67938 17.0261 6.90315 17.173C7.03659 18.5474 7.27516 19.9094 7.61674 21.2472C6.93645 21.4404 6.24237 21.5811 5.54061 21.668V21.6755ZM16.5677 7.86433C16.5926 7.98387 16.6199 8.10092 16.6423 8.22295C16.7268 8.67618 16.8014 9.13937 16.8636 9.61751V9.66979L16.7144 9.58513C16.1997 9.27883 15.6776 8.98001 15.1455 8.7011C14.6134 8.42218 14.1136 8.17812 13.589 7.93656C13.5418 7.91664 13.497 7.88924 13.4523 7.86932L13.4995 7.84691C13.9371 7.63275 14.3698 7.43518 14.7974 7.25422C14.9143 7.20442 15.0286 7.16207 15.143 7.11475C15.4613 6.98526 15.777 6.86573 16.0878 6.75367L16.2917 6.68394L16.3439 6.88816C16.4285 7.19695 16.5006 7.52318 16.5677 7.85688V7.86433ZM12.49 1.08327C12.9682 1.10627 13.4223 1.29971 13.7705 1.62866C13.5873 1.89159 13.4893 2.20454 13.4896 2.52516C13.4896 2.94588 13.6564 3.34936 13.9535 3.64686C14.2505 3.94435 14.6533 4.11147 15.0734 4.11147C15.1923 4.11135 15.3108 4.09713 15.4265 4.06913C15.6494 4.5735 15.8444 5.08979 16.0107 5.61562C15.8864 5.65796 15.7621 5.70774 15.6328 5.75257L15.2698 5.88705C15.0212 5.98418 14.7725 6.08628 14.5015 6.19585L14.2056 6.31787C13.8443 6.47227 13.4829 6.63829 13.1216 6.81593L13.0246 6.86572C12.7387 7.00518 12.4527 7.14712 12.1643 7.30152C11.0689 6.85345 9.94613 6.47584 8.80273 6.17095C9.6854 3.01575 11.0778 1.08327 12.49 1.08327ZM8.53422 7.23431C9.31245 7.43851 10.1131 7.69003 10.9286 7.9814C10.3841 8.30016 9.84453 8.62887 9.31742 8.97752C8.89722 9.25643 8.48199 9.54779 8.07423 9.84662C8.17889 8.96862 8.32911 8.09667 8.52426 7.23431H8.53422ZM8.09661 17.9102C8.66102 18.2514 9.23039 18.5801 9.81469 18.8889C10.399 19.1977 10.941 19.4542 11.5154 19.7157C10.5928 20.1722 9.64186 20.569 8.66847 20.9035C8.41496 19.9183 8.22066 18.9187 8.08665 17.9102H8.09661ZM12.49 26.4992C11.1921 26.4992 9.86194 24.7759 8.96684 21.9669C10.2903 21.5057 11.5763 20.9429 12.8133 20.2834C13.9087 20.7315 15.0315 21.1091 16.1749 21.414C15.2723 24.5617 13.8799 26.4992 12.49 26.4992ZM16.4434 20.3482C15.6652 20.1415 14.8645 19.8924 14.049 19.6011C14.5935 19.2823 15.1331 18.9536 15.6602 18.605C16.0829 18.3236 16.5006 18.0322 16.9034 17.7359C16.7931 18.6144 16.6363 19.4864 16.4334 20.3482H16.4434ZM17.055 16.2492C16.416 16.7472 15.7447 17.2278 15.0659 17.6836C14.32 18.1816 13.5443 18.6448 12.7635 19.0756C11.943 18.7245 11.125 18.3285 10.3319 17.9201C9.53871 17.5117 8.72814 17.0336 7.96234 16.543C7.93996 16.2716 7.92256 15.9976 7.90515 15.7237C7.90515 15.5643 7.88278 15.4025 7.87283 15.2256C7.85294 14.745 7.84051 14.2619 7.84051 13.7788C7.84051 13.3455 7.8405 12.9122 7.86785 12.4788C7.86785 12.3369 7.88278 12.195 7.89273 12.053C7.90516 11.804 7.92007 11.555 7.93748 11.3059C8.58145 10.8079 9.25029 10.3272 9.92658 9.87651C10.6725 9.37845 11.4433 8.91524 12.224 8.4894C12.4726 8.59897 12.7461 8.71602 13.0047 8.83555C13.1315 8.89283 13.2534 8.94763 13.3876 9.0074C13.8153 9.20911 14.2404 9.41827 14.6606 9.63991C15.0808 9.86155 15.5135 10.1031 15.9312 10.3472C16.0605 10.4219 16.1798 10.504 16.3141 10.5812C16.5627 10.7282 16.7989 10.8751 17.0351 11.027C17.1122 11.931 17.152 12.8524 17.152 13.7663C17.1371 14.6006 17.1048 15.4348 17.0451 16.2492H17.055ZM17.3559 6.34027C18.3839 6.03299 19.4485 5.86547 20.521 5.84222C21.4012 5.84222 22.5549 6.00659 23.0746 6.79352C23.3704 7.24178 23.4251 7.84941 23.261 8.5691C23.1789 8.55392 23.0958 8.54477 23.0124 8.54171C22.6926 8.54059 22.38 8.63677 22.1159 8.81752C21.8519 8.99828 21.6489 9.25508 21.5338 9.55394C21.4187 9.8528 21.397 10.1796 21.4714 10.4911C21.5459 10.8026 21.713 11.0842 21.9507 11.2985C21.6413 11.7483 21.3094 12.1822 20.9562 12.5984C20.0469 11.8123 19.0876 11.0861 18.0844 10.4244C18.0546 10.123 18.0173 9.82421 17.98 9.53035C17.98 9.47806 17.9675 9.42576 17.9601 9.37346C17.9079 8.98 17.8457 8.59898 17.7786 8.22295C17.7587 8.1084 17.7338 7.99883 17.7139 7.88677C17.6617 7.63774 17.612 7.3663 17.5548 7.11229C17.525 6.9803 17.4926 6.85079 17.4603 6.7188C17.428 6.58682 17.3783 6.45981 17.3459 6.34027H17.3559ZM18.1739 11.8189C18.8774 12.3155 19.5554 12.8475 20.2053 13.4127C19.5723 14.0853 18.9033 14.7229 18.2012 15.3228C18.2245 14.8148 18.2361 14.3067 18.2361 13.7987C18.2261 13.1263 18.2087 12.4664 18.164 11.809L18.1739 11.8189ZM23.721 19.7107C23.3008 20.5101 22.1322 20.9558 20.429 20.9558C19.448 20.9428 18.4709 20.8302 17.5125 20.6196C17.7948 19.371 17.9925 18.1047 18.1043 16.8294C19.1386 16.0083 20.1132 15.1145 21.0208 14.1548C23.3232 16.3712 24.3526 18.4755 23.7111 19.7007L23.721 19.7107Z" fill="#0046E3"/>
</svg>
