<svg width="251" height="27" viewBox="0 0 251 27" fill="none" xmlns="http://www.w3.org/2000/svg">
    <path d="M120.168 0.40625H119.842H116.669H116.488L116.391 0.551018L102.493 21.9535L102.167 22.4481H102.759H107.5H107.669L107.765 22.2912L116.005 9.04446V22.1223V22.4481H116.331H119.564H119.745L119.842 22.3033L128.565 8.56185V22.1223V22.4481H128.89H132.654H132.968V22.1223V0.732015V0.40625H132.654H128.987H128.806L128.709 0.563094L120.168 14.1839V0.732015V0.40625Z" fill="#F4F4F4"/>
    <path d="M96.642 16.5843C96.0078 17.2669 95.2324 17.803 94.3697 18.1551C93.5071 18.5073 92.578 18.667 91.6473 18.6232C90.7453 18.638 89.8501 18.4644 89.0191 18.1133C88.1881 17.7622 87.4396 17.2414 86.8215 16.5843C85.5652 15.1551 84.8722 13.3175 84.8722 11.4147C84.8722 9.51184 85.5652 7.67417 86.8215 6.24506C88.1209 4.95577 89.8772 4.2323 91.7076 4.2323C93.5381 4.2323 95.2944 4.95577 96.5937 6.24506C97.2559 6.93251 97.7732 7.74585 98.1152 8.63697C98.4571 9.52809 98.6167 10.4788 98.5844 11.4328C98.6291 13.3368 97.9326 15.1837 96.642 16.5843ZM91.6473 0.104208C90.139 0.0578307 88.637 0.319554 87.2332 0.873334C85.8294 1.42711 84.5532 2.26135 83.4827 3.32504C82.4123 4.38873 81.5699 5.65951 81.0073 7.05977C80.4446 8.46002 80.1733 9.96029 80.2101 11.4689C80.1521 12.9867 80.4107 14.5 80.9694 15.9124C81.5281 17.3248 82.3748 18.6054 83.4555 19.6728C85.7036 21.7094 88.6316 22.8323 91.665 22.8211C94.6984 22.81 97.6181 21.6655 99.8512 19.6125C101.957 17.41 103.133 14.4801 103.133 11.4328C103.133 8.38541 101.957 5.45544 99.8512 3.25302C98.7619 2.20878 97.4753 1.39245 96.0666 0.851758C94.6579 0.311065 93.1555 0.0568988 91.6473 0.104208Z" fill="#F4F4F4"/>
    <path d="M65.6122 22.4481H65.9259H69.69H70.0158V22.1223V4.56851H76.6271H76.9529V4.24275V0.732015V0.40625H76.6271H58.9889H58.6631V0.732015V4.24275V4.56851H58.9889H65.6122V22.1223V22.4481Z" fill="#F4F4F4"/>
    <path d="M45.4277 12.76L49.1315 7.43962V12.76H45.4277ZM49.1315 22.4116H53.5349V0.345703H49.3245L49.2279 0.478395L33.8819 21.9411L33.52 22.4478H38.6474L38.7439 22.3031L42.508 16.9102H49.1315V22.4478V22.4116Z" fill="#F4F4F4"/>
    <path d="M141.799 4.59234L144.212 4.53203C146.625 4.53203 147.831 5.52132 147.831 7.54815C147.863 7.98283 147.792 8.41887 147.624 8.82117C147.457 9.22346 147.197 9.58084 146.866 9.86458C146.091 10.4395 145.139 10.7254 144.176 10.6729C143.56 10.6729 142.776 10.6728 141.847 10.5522L141.799 4.59234ZM141.799 22.4719V14.7748C142.402 14.7748 143.211 14.8351 144.212 14.8351C145.298 14.8966 146.385 14.7415 147.41 14.379C148.435 14.0166 149.378 13.454 150.184 12.7239C150.882 12.0619 151.436 11.2623 151.81 10.3756C152.183 9.48894 152.369 8.53444 152.355 7.5723C152.36 6.65668 152.209 5.74693 151.909 4.88195C151.595 4.03549 151.115 3.26025 150.498 2.60174C149.743 1.83795 148.81 1.27408 147.783 0.960992C146.481 0.547692 145.12 0.347993 143.754 0.369771H140.556H137.661H137.396V22.3995H141.799V22.4719Z" fill="#F4F4F4"/>
    <path d="M17.4144 9.99753H22.7831L20.6718 13.0136H15.2911L17.4144 9.99753ZM3.91423 13.0136H3.75742L3.66089 13.1463L0.886072 16.8501L0.5 17.3689H7.15958L3.9625 21.9413L3.61262 22.4481H8.72798L8.82448 22.3153L12.2749 17.3689H17.6678L14.4706 21.9413L14.1208 22.4481H19.2361L19.3327 22.3153L22.7831 17.3689H28.9239L29.0204 17.2362L31.7952 13.5324L32.1813 13.0136H25.8234L27.9226 9.99753H33.4722L33.5687 9.87684L36.3315 6.17311L36.7175 5.65427H30.9628L34.2685 0.912938L34.6183 0.40625H29.503L29.4065 0.551018L25.7871 5.65427H20.3943L23.7 0.912938L24.0498 0.40625H18.9345L18.838 0.551018L15.2187 5.65427H8.30572L8.20922 5.78703L5.44644 9.49084L5.06037 9.99753H12.2991L10.1878 13.0136H3.91423Z" fill="#F4F4F4"/>
    <path d="M202.351 11.4329C202.312 10.4833 202.463 9.53548 202.794 8.64477C203.126 7.75406 203.631 6.93835 204.282 6.2452C205.581 4.95592 207.337 4.23244 209.168 4.23244C210.998 4.23244 212.754 4.95592 214.054 6.2452C214.711 6.93618 215.225 7.75015 215.567 8.64042C215.908 9.5307 216.071 10.4797 216.045 11.4329C216.104 13.3284 215.43 15.1739 214.162 16.5844C213.531 17.2667 212.757 17.8028 211.897 18.155C211.036 18.5072 210.109 18.667 209.18 18.6233C208.278 18.6374 207.383 18.4635 206.552 18.1124C205.721 17.7614 204.973 17.2409 204.354 16.5844C203.696 15.901 203.18 15.0938 202.836 14.2095C202.492 13.3252 202.328 12.3814 202.351 11.4329ZM217.384 19.5764C219.482 17.3698 220.651 14.4414 220.651 11.3967C220.651 8.35195 219.482 5.42364 217.384 3.21701C216.294 2.17388 215.007 1.35821 213.598 0.817585C212.19 0.276965 210.688 0.022163 209.18 0.0681207C207.67 0.0200684 206.167 0.280535 204.762 0.833564C203.357 1.38659 202.079 2.22059 201.007 3.28446C199.936 4.34832 199.092 5.61971 198.529 7.02081C197.965 8.4219 197.694 9.92323 197.731 11.4329C197.673 12.9507 197.931 14.464 198.49 15.8764C199.049 17.2888 199.895 18.5694 200.976 19.6367C203.226 21.6742 206.156 22.7975 209.192 22.7863C212.227 22.7751 215.149 21.6304 217.384 19.5764Z" fill="#F4F4F4"/>
    <path d="M163.624 4.53209L166.037 4.5924V10.5523C165.096 10.6367 164.312 10.6729 163.697 10.6729C162.733 10.7255 161.781 10.4395 161.006 9.86464C160.675 9.58089 160.416 9.22351 160.248 8.82122C160.081 8.41893 160.01 7.98289 160.041 7.54821C160.005 5.52138 161.187 4.53209 163.624 4.53209ZM153.309 22.5323H158.449L158.545 22.3996L163.853 14.8352C164.758 14.8352 165.458 14.8351 166.001 14.7748V22.472H170.404V0.442286H170.079H167.183H163.998C162.632 0.418793 161.271 0.618459 159.969 1.03343C158.937 1.34376 157.999 1.90787 157.242 2.67419C156.628 3.33316 156.152 4.10849 155.843 4.95439C155.532 5.81711 155.377 6.72793 155.384 7.64474C155.37 8.60808 155.557 9.56381 155.933 10.4509C156.309 11.3379 156.865 12.1368 157.568 12.7963C158.084 13.2938 158.679 13.7016 159.329 14.0027L153.671 22.0618L153.309 22.5323Z" fill="#F4F4F4"/>
    <path d="M188.863 18.0203H181.528L188.863 7.50007V18.0203ZM193.266 0.442383H189.08L188.983 0.575074L176.485 18.0203H173.493V26.7429H178.005V22.5444H190.986V26.7429H195.486V18.0203H193.266V0.442383Z" fill="#F4F4F4"/>
    <path d="M246.507 0.40625H246.326L246.229 0.563094L237.688 14.1839V0.732015V0.40625H237.374H234.189H234.02L233.924 0.551018L220.013 21.9535L219.688 22.4481H220.279H225.02H225.201L225.297 22.2912L233.525 9.04446V22.1223V22.4481H233.851H237.097H237.265L237.362 22.3033L246.097 8.56185V22.1223V22.4481H246.41H250.174H250.5V22.1223V0.732015V0.40625H250.174H246.507Z" fill="#F4F4F4"/>
</svg>
