<svg width="30" height="30" viewBox="0 0 30 30" fill="none" xmlns="http://www.w3.org/2000/svg">
    <path fill-rule="evenodd" clip-rule="evenodd" d="M15 30C6.71573 30 0 23.2843 0 15C0 6.71573 6.71573 0 15 0C23.2843 0 30 6.71573 30 15C30 23.2843 23.2843 30 15 30ZM15 27.2727C21.778 27.2727 27.2727 21.778 27.2727 15C27.2727 8.22197 21.778 2.72729 15 2.72729C8.22197 2.72729 2.72729 8.22197 2.72729 15C2.72729 21.778 8.22197 27.2727 15 27.2727ZM8.18188 16.3636H17.1625L14.0358 19.4903L15.9643 21.4188L22.3831 15L15.9643 8.58122L14.0358 10.5097L17.1625 13.6364H8.18188V16.3636Z" fill="#201F37"/>
</svg>
