<svg width="30" height="20" viewBox="0 0 30 20" fill="none" xmlns="http://www.w3.org/2000/svg">
    <path d="M16.3402 12.8351C16.3746 11.3918 16.5292 10.1031 16.8041 8.96907C17.079 7.80069 17.4742 6.71821 17.9897 5.72165C18.5052 4.69072 19.1409 3.72852 19.8969 2.83505C20.6529 1.90722 21.512 0.962199 22.4742 0L26.701 1.95876C26.4261 2.26804 26.1512 2.62887 25.8763 3.04124C25.6357 3.41924 25.378 3.88316 25.1031 4.43299C24.8282 4.98282 24.5876 5.60137 24.3814 6.28866C25.1718 6.42612 25.9107 6.70103 26.5979 7.1134C27.2852 7.49141 27.8694 7.97251 28.3505 8.5567C28.866 9.14089 29.2612 9.79381 29.5361 10.5155C29.8454 11.2371 30 12.0103 30 12.8351C30 13.7972 29.811 14.7079 29.433 15.567C29.0893 16.3918 28.6082 17.1134 27.9897 17.732C27.3711 18.3505 26.6323 18.8488 25.7732 19.2268C24.9485 19.5704 24.0722 19.7423 23.1443 19.7423C22.2165 19.7423 21.3402 19.5704 20.5155 19.2268C19.6907 18.8488 18.9691 18.3505 18.3505 17.732C17.732 17.1134 17.2337 16.3918 16.8557 15.567C16.512 14.7079 16.3402 13.7972 16.3402 12.8351ZM0 12.8351C0.0343643 11.3918 0.189003 10.1031 0.463918 8.96907C0.738832 7.80069 1.13402 6.71821 1.64948 5.72165C2.16495 4.69072 2.78351 3.72852 3.50515 2.83505C4.26117 1.90722 5.13746 0.962199 6.13402 0L10.3608 1.95876C10.0515 2.26804 9.75945 2.62887 9.48454 3.04124C9.24399 3.41924 8.98625 3.88316 8.71134 4.43299C8.47079 4.98282 8.24742 5.60137 8.04124 6.28866C8.83162 6.42612 9.55326 6.70103 10.2062 7.1134C10.8935 7.49141 11.4777 7.97251 11.9588 8.5567C12.4742 9.14089 12.8694 9.79381 13.1443 10.5155C13.4536 11.2371 13.6082 12.0103 13.6082 12.8351C13.6082 13.7972 13.4192 14.7079 13.0412 15.567C12.6976 16.3918 12.2165 17.1134 11.5979 17.732C10.9794 18.3505 10.2577 18.8488 9.43299 19.2268C8.60825 19.5704 7.71478 19.7423 6.75258 19.7423C5.82474 19.7423 4.94845 19.5704 4.12371 19.2268C3.29897 18.8488 2.57732 18.3505 1.95876 17.732C1.37457 17.1134 0.893471 16.3918 0.515464 15.567C0.171821 14.7079 0 13.7972 0 12.8351Z" fill="#0046E3"/>
</svg>
