<svg xmlns="http://www.w3.org/2000/svg" display="none">
    <symbol id="img-icon" viewBox="0 0 20 20">
        <path fill-rule="evenodd" clip-rule="evenodd"
              d="M2 0H18C19.1046 0 20 0.89543 20 2V18C20 19.1046 19.1046 20 18 20H2C0.89543 20 0 19.1046 0 18V2C0 0.89543 0.89543 0 2 0ZM2 1.99987V13.5858L6 9.58575L9.49999 13.0858L16 6.58577L18 8.58577V1.99987H2ZM2 18V16.4142L6 12.4142L11.5858 18H2ZM18 18H14.4142L10.9142 14.5L16 9.41419L18 11.4142V18ZM12 6.00002C12 4.34315 10.6569 2.99998 9 2.99998C7.34315 2.99998 6 4.34315 6 6.00002C6 7.6569 7.34315 9.00006 9 9.00006C10.6569 9.00006 12 7.6569 12 6.00002ZM8 5.99999C8 5.44771 8.44771 5 9 5C9.55229 5 10 5.44771 10 5.99999C10 6.55228 9.55229 6.99999 9 6.99999C8.44771 6.99999 8 6.55228 8 5.99999Z"/>
    </symbol>

    <symbol id="edit-icon" viewBox="0 0 20 21">
        <path fill-rule="evenodd" clip-rule="evenodd"
              d="M20 18.5107V11.5107H18V18.5107H2V2.51074H9V0.510742H2C0.89543 0.510742 0 1.40617 0 2.51074V18.5107C0 19.6153 0.89543 20.5107 2 20.5107H18C19.1046 20.5107 20 19.6153 20 18.5107ZM17.1781 1.23417C16.7197 0.772163 16.092 0.510742 15.4373 0.510742C14.7833 0.510742 14.1564 0.771574 13.6954 1.23537L5.32649 9.60423C4.57866 10.2631 4.08844 11.2437 4.00325 12.2981L4 15.5132V16.5132H8.13459C9.26888 16.4354 10.259 15.9403 10.9575 15.1346L19.279 6.81662C19.7406 6.35494 20 5.72877 20 5.07585C20 4.42294 19.7406 3.79676 19.279 3.33508L17.1781 1.23417ZM8.06397 14.5156C8.5982 14.4778 9.09547 14.2292 9.49478 13.7724L15.5567 7.71041L12.8024 4.95593L6.6961 11.0603C6.29095 11.4187 6.04031 11.92 6 12.3786V14.5137L8.06397 14.5156ZM14.2168 3.54195L16.9708 6.2962L17.8647 5.40228C17.9513 5.31567 18 5.19821 18 5.07573C18 4.95325 17.9513 4.83579 17.8647 4.74918L15.7611 2.64547C15.6754 2.55916 15.5589 2.51062 15.4373 2.51062C15.3157 2.51062 15.1992 2.55916 15.1135 2.64547L14.2168 3.54195Z"/>
    </symbol>

    <symbol id="video-icon" viewBox="0 0 22 14">
        <path fill-rule="evenodd" clip-rule="evenodd"
              d="M2 0H14C15.1046 0 16 0.89543 16 2V3.38281L22 0.382812V13.6189L16 10.6189V12C16 13.1046 15.1046 14 14 14H2C0.89543 14 0 13.1046 0 12V2C0 0.89543 0.89543 0 2 0ZM16 8.38279L20 10.3828V3.61887L16 5.61887V8.38279ZM2 2.00008V12H14V2.00008H2Z"/>
    </symbol>

    <symbol id="static-icon" viewBox="0 0 22 18">
        <path fill-rule="evenodd" clip-rule="evenodd"
              d="M2 0H20C21.1046 0 22 0.89543 22 2V16C22 17.1046 21.1046 18 20 18H2C0.89543 18 0 17.1046 0 16V2C0 0.89543 0.89543 0 2 0ZM2 2.00005V15.9999H20V2.00005H2ZM6 13.9999H8V8H6V13.9999ZM12 13.9999H10V4H12V13.9999ZM14 13.9999H16V7H14V13.9999Z"/>
    </symbol>

    <symbol id="arrow-icon" viewBox="0 0 22 22">
        <path fill-rule="evenodd" clip-rule="evenodd"
              d="M11 22C4.92487 22 0 17.0751 0 11C0 4.92487 4.92487 0 11 0C17.0751 0 22 4.92487 22 11C22 17.0751 17.0751 22 11 22ZM11 20C15.9706 20 20 15.9706 20 11C20 6.02944 15.9706 2 11 2C6.02944 2 2 6.02944 2 11C2 15.9706 6.02944 20 11 20ZM6 12H12.5858L10.2929 14.2929L11.7071 15.7071L16.4142 11L11.7071 6.29289L10.2929 7.70711L12.5858 10H6V12Z"/>
    </symbol>

    <symbol id="fb" viewBox="0 0 13 27">
        <path d="M3.25 9H0V13.5H3.25V27H8.66667V13.5H12.5667L13 9H8.66667V7.0875C8.66667 6.075 8.88333 5.625 9.85833 5.625H13V0H8.88333C4.98333 0 3.25 1.8 3.25 5.175V9Z"/>
    </symbol>

    <symbol id="vk" viewBox="0 0 31 18">
        <path d="M30.8193 16.2763C30.7818 16.1954 30.7468 16.1283 30.7143 16.0746C30.1767 15.1064 29.1495 13.9181 27.6331 12.5092L27.6011 12.4769L27.585 12.4611L27.5688 12.4449H27.5525C26.8643 11.7888 26.4285 11.3477 26.246 11.1219C25.9121 10.6917 25.8373 10.2562 26.0198 9.81498C26.1487 9.48161 26.6331 8.77759 27.4717 7.70196C27.9128 7.1319 28.2622 6.67503 28.5201 6.33081C30.3808 3.85714 31.1875 2.27643 30.94 1.58806L30.8439 1.4272C30.7793 1.33035 30.6127 1.24176 30.3441 1.16096C30.0749 1.08033 29.7309 1.067 29.3114 1.12073L24.6655 1.15282C24.5902 1.12615 24.4828 1.12864 24.3428 1.16096C24.2029 1.19328 24.133 1.20949 24.133 1.20949L24.0521 1.24989L23.9879 1.29843C23.9341 1.33052 23.875 1.38697 23.8104 1.46765C23.7461 1.54806 23.6924 1.64242 23.6495 1.74994C23.1437 3.05125 22.5686 4.26113 21.9232 5.37954C21.5252 6.04644 21.1598 6.6244 20.826 7.11377C20.4927 7.60297 20.2131 7.96339 19.9874 8.19443C19.7614 8.4257 19.5574 8.61097 19.3742 8.75092C19.1913 8.89094 19.0517 8.9501 18.955 8.92845C18.8581 8.90681 18.7669 8.88534 18.6805 8.86387C18.53 8.76703 18.409 8.63532 18.3177 8.46864C18.2261 8.30196 18.1644 8.09216 18.1321 7.83943C18.1 7.58652 18.081 7.36899 18.0756 7.18609C18.0706 7.00342 18.0729 6.74503 18.0838 6.41167C18.095 6.07814 18.1 5.85247 18.1 5.73415C18.1 5.32541 18.108 4.88181 18.124 4.40324C18.1403 3.92466 18.1534 3.54547 18.1644 3.26612C18.1754 2.98649 18.1805 2.69065 18.1805 2.37876C18.1805 2.06686 18.1615 1.82226 18.124 1.64473C18.0869 1.46743 18.03 1.29532 17.955 1.12847C17.8796 0.961788 17.7692 0.83285 17.6243 0.741316C17.4792 0.649895 17.2987 0.577346 17.084 0.523443C16.5139 0.394448 15.788 0.324667 14.906 0.313819C12.9057 0.292348 11.6205 0.421512 11.0505 0.701142C10.8246 0.819289 10.6202 0.980716 10.4375 1.18492C10.2439 1.4216 10.2169 1.55077 10.3567 1.57201C11.002 1.66869 11.4589 1.89995 11.7278 2.26558L11.8247 2.45933C11.9001 2.59911 11.9753 2.84659 12.0507 3.20143C12.1259 3.55626 12.1744 3.94879 12.1958 4.37877C12.2494 5.16398 12.2494 5.83614 12.1958 6.39528C12.1419 6.95466 12.0911 7.39012 12.0425 7.70201C11.994 8.01391 11.9214 8.26664 11.8247 8.46016C11.7278 8.65374 11.6633 8.77206 11.631 8.815C11.5988 8.85794 11.5719 8.885 11.5505 8.89563C11.4107 8.94919 11.2653 8.97648 11.1149 8.97648C10.9642 8.97648 10.7814 8.90111 10.5664 8.75047C10.3514 8.59984 10.1283 8.39293 9.89702 8.1294C9.66575 7.86581 9.40494 7.49748 9.11446 7.02432C8.82421 6.55117 8.52305 5.99197 8.21115 5.34671L7.95311 4.87876C7.79179 4.57771 7.57143 4.13937 7.2918 3.56412C7.012 2.98864 6.76469 2.43198 6.5497 1.89425C6.46376 1.66841 6.33465 1.49647 6.1626 1.37815L6.08186 1.32962C6.02818 1.28668 5.94202 1.24108 5.82381 1.19249C5.70544 1.14395 5.58193 1.10915 5.45276 1.08773L1.03264 1.11983C0.580958 1.11983 0.274489 1.22215 0.113118 1.42652L0.0485356 1.5232C0.0162727 1.57704 0 1.66304 0 1.78141C0 1.89973 0.0322629 2.04494 0.0968451 2.21688C0.742102 3.7334 1.44381 5.19596 2.20195 6.60479C2.9601 8.01363 3.61892 9.14847 4.17801 10.0083C4.73722 10.8688 5.30721 11.6809 5.888 12.4443C6.46879 13.2079 6.85323 13.6973 7.04133 13.9122C7.22965 14.1276 7.37757 14.2887 7.4851 14.3962L7.88847 14.7833C8.14657 15.0414 8.52559 15.3506 9.02569 15.7108C9.52591 16.0713 10.0797 16.4261 10.6873 16.7759C11.2951 17.1251 12.0021 17.4101 12.8088 17.6306C13.6153 17.8512 14.4004 17.9397 15.164 17.897H17.0192C17.3954 17.8645 17.6805 17.7462 17.8743 17.542L17.9384 17.4612C17.9816 17.397 18.022 17.2973 18.0593 17.1631C18.097 17.0286 18.1158 16.8805 18.1158 16.7195C18.1048 16.2571 18.14 15.8404 18.2204 15.4694C18.3008 15.0985 18.3925 14.8189 18.495 14.6306C18.5974 14.4424 18.713 14.2836 18.8417 14.1549C18.9706 14.0259 19.0625 13.9478 19.1164 13.9209C19.17 13.8938 19.2127 13.8755 19.245 13.8644C19.5031 13.7785 19.8069 13.8617 20.1567 14.1147C20.5063 14.3674 20.8342 14.6795 21.1409 15.0504C21.4474 15.4216 21.8157 15.8381 22.2458 16.3004C22.6762 16.763 23.0525 17.1068 23.375 17.333L23.6975 17.5265C23.9129 17.6557 24.1925 17.774 24.5367 17.8815C24.8803 17.989 25.1814 18.0159 25.4399 17.9622L29.5695 17.8978C29.9779 17.8978 30.2957 17.8301 30.5212 17.6959C30.7471 17.5615 30.8813 17.4134 30.9246 17.2523C30.9677 17.0911 30.97 16.9081 30.9327 16.7036C30.8945 16.4995 30.8568 16.3569 30.8193 16.2763Z"/>
    </symbol>

    <symbol id="instagram" viewBox="0 0 28 27">
        <path d="M14.4834 2.475C18.0834 2.475 18.5334 2.475 19.9959 2.5875C23.7084 2.7 25.3959 4.5 25.5084 8.1C25.6209 9.5625 25.6209 9.9 25.6209 13.5C25.6209 17.1 25.6209 17.55 25.5084 18.9C25.3959 22.5 23.5959 24.3 19.9959 24.4125C18.5334 24.525 18.1959 24.525 14.4834 24.525C10.8834 24.525 10.4334 24.525 9.0834 24.4125C5.3709 24.3 3.6834 22.5 3.5709 18.9C3.4584 17.4375 3.4584 17.1 3.4584 13.5C3.4584 9.9 3.4584 9.45 3.5709 8.1C3.6834 4.5 5.4834 2.7 9.0834 2.5875C10.4334 2.475 10.8834 2.475 14.4834 2.475ZM14.4834 0C10.7709 0 10.3209 0 8.9709 0.1125C4.0209 0.3375 1.3209 3.0375 1.0959 7.9875C0.983398 9.3375 0.983398 9.7875 0.983398 13.5C0.983398 17.2125 0.983398 17.6625 1.0959 19.0125C1.3209 23.9625 4.0209 26.6625 8.9709 26.8875C10.3209 27 10.7709 27 14.4834 27C18.1959 27 18.6459 27 19.9959 26.8875C24.9459 26.6625 27.6459 23.9625 27.8709 19.0125C27.9834 17.6625 27.9834 17.2125 27.9834 13.5C27.9834 9.7875 27.9834 9.3375 27.8709 7.9875C27.6459 3.0375 24.9459 0.3375 19.9959 0.1125C18.6459 0 18.1959 0 14.4834 0ZM14.4834 6.525C10.6584 6.525 7.5084 9.675 7.5084 13.5C7.5084 17.325 10.6584 20.475 14.4834 20.475C18.3084 20.475 21.4584 17.325 21.4584 13.5C21.4584 9.675 18.3084 6.525 14.4834 6.525ZM14.4834 18C12.0084 18 9.9834 15.975 9.9834 13.5C9.9834 11.025 12.0084 9 14.4834 9C16.9584 9 18.9834 11.025 18.9834 13.5C18.9834 15.975 16.9584 18 14.4834 18ZM21.6834 4.725C20.7834 4.725 20.1084 5.4 20.1084 6.3C20.1084 7.2 20.7834 7.875 21.6834 7.875C22.5834 7.875 23.2584 7.2 23.2584 6.3C23.2584 5.4 22.5834 4.725 21.6834 4.725Z"/>
    </symbol>

    <symbol id="twitter" viewBox="0 0 19 15">
        <path d="M5.97512 15C13.145 15 17.0666 9.22855 17.0666 4.22358C17.0666 4.05965 17.0666 3.89647 17.0552 3.73401C17.8181 3.19786 18.4766 2.534 19 1.77352C18.2886 2.07997 17.5339 2.28084 16.761 2.36942C17.5749 1.89614 18.1839 1.15164 18.4748 0.274543C17.7097 0.715751 16.8725 1.02667 15.9995 1.19387C15.4118 0.586659 14.6345 0.18458 13.7878 0.0498528C12.9412 -0.0848747 12.0725 0.0552603 11.3161 0.448572C10.5597 0.841884 9.95776 1.46645 9.6035 2.22561C9.24925 2.98477 9.16239 3.83621 9.35636 4.64817C7.80654 4.57263 6.29039 4.1813 4.90632 3.49957C3.52225 2.81784 2.30119 1.86095 1.3224 0.691008C0.82391 1.5248 0.671232 2.51184 0.895454 3.45116C1.11968 4.39048 1.70394 5.21145 2.52928 5.74693C1.90889 5.72927 1.30201 5.56666 0.76 5.27287V5.32087C0.760246 6.19531 1.0718 7.04275 1.64181 7.71946C2.21183 8.39616 3.00522 8.86046 3.8874 9.03361C3.31351 9.18571 2.71136 9.20794 2.12724 9.09859C2.37644 9.8511 2.86142 10.5091 3.5144 10.9807C4.16737 11.4523 4.9557 11.7139 5.76916 11.7288C4.96093 12.3461 4.03537 12.8024 3.04544 13.0718C2.05551 13.3412 1.02063 13.4183 0 13.2987C1.7827 14.4102 3.85694 14.9998 5.97512 14.997"/>
    </symbol>


    <symbol id="cabinet" viewBox="0 0 13 12">
        <path d="M10.9845 11.6326H5.35231C4.66106 11.6326 4.1007 11.0723 4.1007 10.381V7.87781H5.35231V10.381H10.9845V1.61977H5.35231V4.12299H4.1007V1.61977C4.1007 0.928528 4.66106 0.368164 5.35231 0.368164H10.9845C11.6758 0.368164 12.2362 0.928528 12.2362 1.61977V10.381C12.2362 11.0723 11.6758 11.6326 10.9845 11.6326ZM6.60392 8.50362V6.6262H0.97168V5.3746H6.60392V3.49718L9.73294 6.0004L6.60392 8.50362Z"/>
    </symbol>

    <symbol id="logo" viewBox="0 0 251 27">
        <path d="M120.168 0.40625H119.842H116.669H116.488L116.391 0.551018L102.493 21.9535L102.167 22.4481H102.759H107.5H107.669L107.765 22.2912L116.005 9.04446V22.1223V22.4481H116.331H119.564H119.745L119.842 22.3033L128.565 8.56185V22.1223V22.4481H128.89H132.654H132.968V22.1223V0.732015V0.40625H132.654H128.987H128.806L128.709 0.563094L120.168 14.1839V0.732015V0.40625Z"/>
        <path d="M96.642 16.5843C96.0078 17.2669 95.2324 17.803 94.3697 18.1551C93.5071 18.5073 92.578 18.667 91.6473 18.6232C90.7453 18.638 89.8501 18.4644 89.0191 18.1133C88.1881 17.7622 87.4396 17.2414 86.8215 16.5843C85.5652 15.1551 84.8722 13.3175 84.8722 11.4147C84.8722 9.51184 85.5652 7.67417 86.8215 6.24506C88.1209 4.95577 89.8772 4.2323 91.7076 4.2323C93.5381 4.2323 95.2944 4.95577 96.5937 6.24506C97.2559 6.93251 97.7732 7.74585 98.1152 8.63697C98.4571 9.52809 98.6167 10.4788 98.5844 11.4328C98.6291 13.3368 97.9326 15.1837 96.642 16.5843ZM91.6473 0.104208C90.139 0.0578307 88.637 0.319554 87.2332 0.873334C85.8294 1.42711 84.5532 2.26135 83.4827 3.32504C82.4123 4.38873 81.5699 5.65951 81.0073 7.05977C80.4446 8.46002 80.1733 9.96029 80.2101 11.4689C80.1521 12.9867 80.4107 14.5 80.9694 15.9124C81.5281 17.3248 82.3748 18.6054 83.4555 19.6728C85.7036 21.7094 88.6316 22.8323 91.665 22.8211C94.6984 22.81 97.6181 21.6655 99.8512 19.6125C101.957 17.41 103.133 14.4801 103.133 11.4328C103.133 8.38541 101.957 5.45544 99.8512 3.25302C98.7619 2.20878 97.4753 1.39245 96.0666 0.851758C94.6579 0.311065 93.1555 0.0568988 91.6473 0.104208Z"/>
        <path d="M65.6122 22.4481H65.9259H69.69H70.0158V22.1223V4.56851H76.6271H76.9529V4.24275V0.732015V0.40625H76.6271H58.9889H58.6631V0.732015V4.24275V4.56851H58.9889H65.6122V22.1223V22.4481Z"/>
        <path d="M45.4277 12.76L49.1315 7.43962V12.76H45.4277ZM49.1315 22.4116H53.5349V0.345703H49.3245L49.2279 0.478395L33.8819 21.9411L33.52 22.4478H38.6474L38.7439 22.3031L42.508 16.9102H49.1315V22.4478V22.4116Z"/>
        <path d="M141.799 4.59234L144.212 4.53203C146.625 4.53203 147.831 5.52132 147.831 7.54815C147.863 7.98283 147.792 8.41887 147.624 8.82117C147.457 9.22346 147.197 9.58084 146.866 9.86458C146.091 10.4395 145.139 10.7254 144.176 10.6729C143.56 10.6729 142.776 10.6728 141.847 10.5522L141.799 4.59234ZM141.799 22.4719V14.7748C142.402 14.7748 143.211 14.8351 144.212 14.8351C145.298 14.8966 146.385 14.7415 147.41 14.379C148.435 14.0166 149.378 13.454 150.184 12.7239C150.882 12.0619 151.436 11.2623 151.81 10.3756C152.183 9.48894 152.369 8.53444 152.355 7.5723C152.36 6.65668 152.209 5.74693 151.909 4.88195C151.595 4.03549 151.115 3.26025 150.498 2.60174C149.743 1.83795 148.81 1.27408 147.783 0.960992C146.481 0.547692 145.12 0.347993 143.754 0.369771H140.556H137.661H137.396V22.3995H141.799V22.4719Z"/>
        <path d="M17.4144 9.99753H22.7831L20.6718 13.0136H15.2911L17.4144 9.99753ZM3.91423 13.0136H3.75742L3.66089 13.1463L0.886072 16.8501L0.5 17.3689H7.15958L3.9625 21.9413L3.61262 22.4481H8.72798L8.82448 22.3153L12.2749 17.3689H17.6678L14.4706 21.9413L14.1208 22.4481H19.2361L19.3327 22.3153L22.7831 17.3689H28.9239L29.0204 17.2362L31.7952 13.5324L32.1813 13.0136H25.8234L27.9226 9.99753H33.4722L33.5687 9.87684L36.3315 6.17311L36.7175 5.65427H30.9628L34.2685 0.912938L34.6183 0.40625H29.503L29.4065 0.551018L25.7871 5.65427H20.3943L23.7 0.912938L24.0498 0.40625H18.9345L18.838 0.551018L15.2187 5.65427H8.30572L8.20922 5.78703L5.44644 9.49084L5.06037 9.99753H12.2991L10.1878 13.0136H3.91423Z"/>
        <path d="M202.351 11.4329C202.312 10.4833 202.463 9.53548 202.794 8.64477C203.126 7.75406 203.631 6.93835 204.282 6.2452C205.581 4.95592 207.337 4.23244 209.168 4.23244C210.998 4.23244 212.754 4.95592 214.054 6.2452C214.711 6.93618 215.225 7.75015 215.567 8.64042C215.908 9.5307 216.071 10.4797 216.045 11.4329C216.104 13.3284 215.43 15.1739 214.162 16.5844C213.531 17.2667 212.757 17.8028 211.897 18.155C211.036 18.5072 210.109 18.667 209.18 18.6233C208.278 18.6374 207.383 18.4635 206.552 18.1124C205.721 17.7614 204.973 17.2409 204.354 16.5844C203.696 15.901 203.18 15.0938 202.836 14.2095C202.492 13.3252 202.328 12.3814 202.351 11.4329ZM217.384 19.5764C219.482 17.3698 220.651 14.4414 220.651 11.3967C220.651 8.35195 219.482 5.42364 217.384 3.21701C216.294 2.17388 215.007 1.35821 213.598 0.817585C212.19 0.276965 210.688 0.022163 209.18 0.0681207C207.67 0.0200684 206.167 0.280535 204.762 0.833564C203.357 1.38659 202.079 2.22059 201.007 3.28446C199.936 4.34832 199.092 5.61971 198.529 7.02081C197.965 8.4219 197.694 9.92323 197.731 11.4329C197.673 12.9507 197.931 14.464 198.49 15.8764C199.049 17.2888 199.895 18.5694 200.976 19.6367C203.226 21.6742 206.156 22.7975 209.192 22.7863C212.227 22.7751 215.149 21.6304 217.384 19.5764Z"/>
        <path d="M163.624 4.53209L166.037 4.5924V10.5523C165.096 10.6367 164.312 10.6729 163.697 10.6729C162.733 10.7255 161.781 10.4395 161.006 9.86464C160.675 9.58089 160.416 9.22351 160.248 8.82122C160.081 8.41893 160.01 7.98289 160.041 7.54821C160.005 5.52138 161.187 4.53209 163.624 4.53209ZM153.309 22.5323H158.449L158.545 22.3996L163.853 14.8352C164.758 14.8352 165.458 14.8351 166.001 14.7748V22.472H170.404V0.442286H170.079H167.183H163.998C162.632 0.418793 161.271 0.618459 159.969 1.03343C158.937 1.34376 157.999 1.90787 157.242 2.67419C156.628 3.33316 156.152 4.10849 155.843 4.95439C155.532 5.81711 155.377 6.72793 155.384 7.64474C155.37 8.60808 155.557 9.56381 155.933 10.4509C156.309 11.3379 156.865 12.1368 157.568 12.7963C158.084 13.2938 158.679 13.7016 159.329 14.0027L153.671 22.0618L153.309 22.5323Z"/>
        <path d="M188.863 18.0203H181.528L188.863 7.50007V18.0203ZM193.266 0.442383H189.08L188.983 0.575074L176.485 18.0203H173.493V26.7429H178.005V22.5444H190.986V26.7429H195.486V18.0203H193.266V0.442383Z"/>
        <path d="M246.507 0.40625H246.326L246.229 0.563094L237.688 14.1839V0.732015V0.40625H237.374H234.189H234.02L233.924 0.551018L220.013 21.9535L219.688 22.4481H220.279H225.02H225.201L225.297 22.2912L233.525 9.04446V22.1223V22.4481H233.851H237.097H237.265L237.362 22.3033L246.097 8.56185V22.1223V22.4481H246.41H250.174H250.5V22.1223V0.732015V0.40625H250.174H246.507Z"/>
    </symbol>

    <symbol id="ok" viewBox="0 0 12 20">
        <path fill-rule="evenodd" clip-rule="evenodd"
              d="M3.80348 14.4079C3.00428 14.2284 2.25924 13.9688 1.55113 13.6165C1.29754 13.4898 1.04788 13.3541 0.805604 13.2084C0.0910967 12.7769 -0.130986 11.8869 0.298408 11.2022C0.740112 10.4988 1.65553 10.2703 2.38629 10.6988C3.10523 11.1193 3.86701 11.425 4.69477 11.5693C6.32371 11.8522 7.85417 11.5917 9.28023 10.7808C9.57125 10.615 9.86523 10.485 10.2124 10.4869C10.8855 10.4907 11.475 10.9074 11.6705 11.5269C11.8669 12.1512 11.6222 12.8269 11.0505 13.1827C10.1597 13.7369 9.19504 14.1274 8.16784 14.3722C8.12352 14.3822 8.08019 14.3946 8.01814 14.4103C8.06 14.4541 8.0925 14.4884 8.12697 14.5217C9.03992 15.4046 9.95337 16.286 10.8653 17.1703C11.3986 17.6874 11.5109 18.3969 11.1569 18.9884C10.6472 19.8403 9.47522 19.9817 8.74102 19.276C7.83102 18.4007 6.92595 17.5217 6.01939 16.645C5.98689 16.6136 5.95636 16.5798 5.88398 16.5036C5.85394 16.5555 5.83769 16.606 5.8042 16.6384C4.89568 17.5203 3.98716 18.4007 3.07469 19.2788C2.44882 19.8827 1.49303 19.8788 0.887347 19.2769C0.333369 18.7265 0.317612 17.8522 0.85337 17.2746C0.925756 17.1955 1.00454 17.1212 1.08136 17.0465C1.95295 16.2031 2.82405 15.3612 3.69564 14.5174C3.72568 14.4879 3.7567 14.455 3.80348 14.4079Z"/>
        <path fill-rule="evenodd" clip-rule="evenodd"
              d="M5.91139 0.27002C8.76991 0.27002 11.102 2.52621 11.1015 5.2905C11.101 8.05811 8.79109 10.311 5.91336 10.3119C3.01938 10.3148 0.721237 8.05859 0.716805 5.30002C0.71188 2.53192 3.02775 0.277639 5.91139 0.27002ZM8.05688 5.29526C8.05786 4.15145 7.10109 3.21859 5.92419 3.21573C4.73154 3.21288 3.75999 4.13764 3.75802 5.27669C3.75605 6.41764 4.71283 7.36764 5.86756 7.36859C7.09124 7.36954 8.0559 6.45621 8.05688 5.29526Z"/>
    </symbol>


</svg>