<svg width="125" height="125" viewBox="0 0 125 125" fill="none" xmlns="http://www.w3.org/2000/svg">
    <rect x="0.5" y="0.5" width="124" height="123.963" rx="61.9816" stroke="white"/>
    <mask id="mask0" mask-type="alpha" maskUnits="userSpaceOnUse" x="0" y="0" width="125" height="125">
        <rect x="0.0742188" y="0.184448" width="124.852" height="124.816" rx="62.4078" fill="#0046E3"/>
    </mask>
    <g mask="url(#mask0)">
        <path fill-rule="evenodd" clip-rule="evenodd" d="M96.3458 91.8559C93.0317 90.1241 87.5683 89.4514 81.3331 87.2882C81.3419 87.2205 80.3649 85.0479 79.9206 84.1905C78.8727 82.1679 78.1777 81.7836 75.3521 81.5847C75.3616 81.6259 75.371 81.6659 75.3799 81.7053C74.9026 79.8605 74.9185 78.1822 75.197 76.7139C75.4991 76.3608 76.1203 75.637 76.9039 74.5854C78.1098 72.9659 78.511 70.5273 78.7943 67.795C78.8184 67.5602 78.9901 67.2207 79.1789 67.1483C79.5382 67.01 79.9583 67.0053 80.3548 66.9894C80.8752 66.9687 81.4534 66.6004 81.6499 66.1214C82.0458 65.1522 82.552 64.3177 82.9686 63.3567C83.3055 62.58 83.7061 61.8402 84.0217 61.0558C84.2294 60.5403 84.4949 59.8983 84.6235 59.3545C84.8294 58.4865 85.0135 57.7351 85.125 56.8529C85.2967 55.5053 85.1752 54.2519 84.1769 52.8307C84.0919 52.623 83.7704 52.3529 83.5485 52.2063C83.5438 52.1475 83.5379 52.0881 83.5314 52.0286C84.1067 50.9494 84.6164 49.357 84.9091 47.9223C85.8378 43.3734 85.1882 35.183 80.2356 33.2834C79.7276 27.8365 76.1026 25.0642 70.294 23.0439C70.2816 23.0398 70.2669 23.0351 70.2509 23.0298C68.5818 22.4678 63.29 21.7152 61.649 21.6822C59.7823 21.6445 54.7084 22.1912 52.9252 22.7385C47.13 24.5163 42.7217 28.7021 40.4374 34.272C38.608 38.7327 36.5908 48.117 39.4455 52.5247C39.3907 52.6683 39.3049 52.7919 39.179 52.8884C39.136 52.9154 39.0905 52.9443 39.0426 52.9749C38.5681 54.156 38.1909 55.377 38.3547 56.6687C38.4667 57.5503 38.7155 58.4153 38.9217 59.2839C39.0507 59.8277 39.1669 60.3814 39.3741 60.8969C39.6902 61.682 40.0972 62.4299 40.434 63.2073C40.8503 64.1682 41.2357 65.1427 41.6322 66.112C41.828 66.591 42.4064 66.9594 42.9272 66.98C43.3234 66.9958 43.7436 67.0006 44.1029 67.1389C44.2919 67.2112 44.4631 67.5508 44.4876 67.7856C44.7704 70.5179 45.3336 73.0036 46.2914 74.343C46.6205 74.8037 47.7888 76.312 47.9554 76.5144C48.3044 78.1816 48.2335 79.8887 47.8899 81.5624C45.7438 81.5294 44.2653 82.3144 43.2936 84.1905C42.8494 85.0479 41.8774 87.2699 41.9007 87.4282C35.8214 89.5326 30.5272 90.1517 27.2663 91.8559C17.9914 96.7032 15.3634 103.831 14.6396 125H108.973C108.249 103.831 105.621 96.7032 96.3458 91.8559C93.0317 90.1241 105.621 96.7032 96.3458 91.8559Z" fill="white"/>
    </g>
</svg>
